<svg xmlns="http://www.w3.org/2000/svg" x="0px" y="0px"
width="24" height="24"
viewBox="0 0 172 172"
style=" fill:#000000;"><g fill="none" fill-rule="nonzero" stroke="none" stroke-width="1" stroke-linecap="butt" stroke-linejoin="miter" stroke-miterlimit="10" stroke-dasharray="" stroke-dashoffset="0" font-family="none" font-weight="none" font-size="none" text-anchor="none" style="mix-blend-mode: normal"><path d="M0,172v-172h172v172z" fill="none"></path><g fill="#ffffff"><path d="M157.66667,21.5h-143.33333v114.66667h114.66667l28.66667,28.66667zM51.50683,50.16667h11.64583l22.84733,57.33333h-13.4375l-4.257,-11.868h-21.94433l-4.257,11.868h-13.4375zM113.31933,50.16667h9.85417v9.632h20.15983v9.40267c-1.45483,12.427 -7.02333,21.6935 -16.125,27.993c2.46533,0.39417 5.03817,0.67367 7.84033,0.67367v9.632c-7.5035,0 -14.49817,-1.45483 -20.382,-3.8055c-6.7725,2.54417 -15.394,3.8055 -21.5,3.8055v-9.632c2.74483,0 7.5035,-0.2795 10.52783,-0.89583c-5.43233,-4.86617 -10.52783,-15.17183 -10.52783,-22.1665h10.07633c0,5.289 5.40367,14.67017 11.868,18.361c9.48867,-4.5365 15.62333,-12.57033 17.47233,-23.96533h-39.41667v-9.40267h20.15267zM57.33333,64.72217l-7.61817,21.5h15.22917z"></path></g></g></svg>